<svg xmlns="http://www.w3.org/2000/svg" width="48" height="48" fill="none" viewBox="0 0 48 48">
  <path fill="#fff" d="M47.501 36.915c-1.71.435-2.767.019-3.716-1.406-2.13-3.191-4.481-6.236-6.75-9.338-.292-.401-.596-.795-.975-1.293-2.685 3.622-5.366 7.072-7.883 10.66-.9 1.283-1.845 1.842-3.524 1.388l10.095-13.549-9.398-12.236c1.616-.315 2.734-.153 3.724 1.294 2.186 3.195 4.597 6.236 7.001 9.454 2.419-3.206 4.8-6.252 7.05-9.416.904-1.283 1.875-1.77 3.499-1.298-1.23 1.631-2.434 3.236-3.645 4.83-1.635 2.149-3.24 4.324-4.935 6.428-.604.75-.506 1.237.034 1.946 3.134 4.121 6.232 8.284 9.423 12.536ZM.5 23.153c.27-1.354.45-2.734.825-4.062 2.25-8.036 11.475-11.377 17.812-6.397 3.713 2.921 4.635 7.039 4.451 11.681H2.663c-.315 8.329 5.68 13.358 13.323 10.792 2.681-.9 4.26-3 5.052-5.625.4-1.316 1.064-1.522 2.302-1.147-.634 3.285-2.07 6.03-5.07 7.747-4.5 2.573-10.924 1.74-14.303-1.833-1.995-2.1-2.842-4.714-3.217-7.538-.056-.45-.172-.892-.262-1.338.007-.76.01-1.52.01-2.28Zm2.201-.56h18.911c-.123-6.022-3.873-10.3-9-10.338-5.625-.045-9.667 4.132-9.911 10.339Z"/>
</svg>
