<svg xmlns="http://www.w3.org/2000/svg" width="48" height="48" fill="none" viewBox="0 0 48 48">
  <g clip-path="url(#a)">
    <path fill="#99425B" d="M46.548 23.633c0-2.885-2.185-5.312-5.12-6.005L48 .042H15.435l6.586 17.642c-2.842.748-4.936 3.133-4.936 5.963 0 2.08 1.146 3.924 2.888 5.061a17.082 17.082 0 0 1-2.383 2.483c-1.696 1.443-3.577 2.552-5.61 3.287-1.833-1.123-2.627-3.107-1.91-4.883 2.797-.776 4.83-3.147 4.83-5.935 0-3.425-3.071-6.2-6.832-6.2-3.775 0-6.845 2.789-6.845 6.215 0 1.692.763 3.244 1.987 4.353-.108.195-.214.389-.321.597C1.865 30.539.703 32.703.259 35.13c-.886 4.853.566 8.751 4.065 10.956a12.005 12.005 0 0 0 6.48 1.859c4.019 0 8.1-1.831 12.042-3.607 2.812-1.261 5.715-2.58 8.573-3.217 1.055-.236 2.155-.375 3.317-.527 2.352-.305 4.783-.624 6.968-1.775 2.552-1.345 4.294-3.593 4.799-6.172.38-1.983 0-3.98-.979-5.727a5.757 5.757 0 0 0 1.024-3.287Zm-2.979 0c0 1.927-1.727 3.495-3.851 3.495-2.124 0-3.852-1.568-3.852-3.495 0-.625.184-1.22.505-1.734a4 4 0 0 1 .427-.555 3.2 3.2 0 0 1 .535-.457l.016-.014c.122-.084.26-.167.397-.25 0 0 .015 0 .015-.014.061-.028.123-.069.184-.097.015 0 .03-.014.045-.014.062-.027.139-.054.214-.082a3.29 3.29 0 0 0 .214-.084c.015 0 .031-.015.046-.015.061-.012.123-.04.183-.054.016 0 .047-.014.062-.014l.213-.042h.017l.228-.042c.016 0 .045 0 .061-.013.062 0 .122-.015.184-.015h.076c.076 0 .154-.013.244-.013h.2c.06 0 .107 0 .167.013h.03c.123.015.245.028.368.056 1.742.332 3.072 1.748 3.072 3.44ZM19.698 2.816h24.038l-5.517 14.77a6.506 6.506 0 0 0-.687.18L31.726 7.018l-5.823 10.678a6.068 6.068 0 0 0-.718-.152L19.698 2.816Zm10.926 19.61a6.034 6.034 0 0 0-2.063-3.329l3.165-5.796 3.193 5.92c-.948.86-1.635 1.956-1.91 3.204h-2.385Zm-7.655-2.19c.076-.016.137-.029.213-.043h.046c.061-.013.123-.013.183-.028h.062c.061 0 .107-.014.168-.014h.596c.06 0 .107.014.153.014.03 0 .045 0 .076.015.061.013.107.013.168.027.015 0 .03 0 .062.014.076.014.152.027.213.042h.015a.823.823 0 0 1 .183.054c.017 0 .031.015.062.015.045.013.107.028.152.055.016 0 .03.014.047.014.06.028.122.042.183.07h.015a.773.773 0 0 1 .2.097h.014c.061.027.123.068.184.096.015 0 .015.015.03.015.061.026.107.069.168.097l.016.013c.183.124.352.264.519.403l.016.013c.152.152.305.319.428.5.397.554.627 1.207.627 1.914 0 1.928-1.728 3.494-3.852 3.494-2.124 0-3.85-1.566-3.85-3.494-.017-1.623 1.221-2.996 2.903-3.384Zm-15.039-.1c2.125 0 3.852 1.568 3.852 3.496s-1.727 3.495-3.851 3.495c-2.125 0-3.852-1.567-3.852-3.495 0-1.928 1.728-3.495 3.852-3.495Zm35.547 12.026c-.336 1.774-1.544 3.328-3.317 4.257-1.665.874-3.713 1.15-5.868 1.428-1.176.152-2.414.32-3.607.583-3.178.707-6.234 2.095-9.199 3.425-3.79 1.706-7.367 3.315-10.681 3.315a8.585 8.585 0 0 1-4.737-1.373c-3.362-2.108-3.195-6.06-2.797-8.224.366-2.025 1.39-3.925 2.369-5.742.06-.111.107-.208.167-.32a6.43 6.43 0 0 0 1.054.251c-.58 2.94 1.07 5.977 4.28 7.476l.58.276.626-.208c2.675-.86 5.15-2.26 7.336-4.132a19.196 19.196 0 0 0 3.179-3.426c.351.056.703.07 1.054.07 3.18 0 5.853-1.984 6.617-4.646H33.1c.764 2.676 3.439 4.646 6.618 4.646a7.285 7.285 0 0 0 3.452-.86c.399 1.04.52 2.121.307 3.204Z"/>
  </g>
  <defs>
    <clipPath id="a">
      <path fill="#fff" d="M0 0h48v48H0z"/>
    </clipPath>
  </defs>
</svg>
