<svg xmlns="http://www.w3.org/2000/svg" width="48" height="48" fill="none" viewBox="0 0 48 48">
  <path fill="#439934" fill-rule="evenodd" d="M33.014 16.054c.602 1.742 1.036 3.52 1.178 5.361.177 2.286.096 4.556-.386 6.804-.013.062-.04.12-.061.18-.151 0-.305-.019-.453.004-1.249.196-2.496.4-3.743.602-1.29.209-2.58.41-3.867.632-.456.08-1.02-.015-1.205.616-.005.017-.058.02-.088.03l.062-3.77-.063-9.094.6-.103c.983-.16 1.965-.324 2.949-.48 1.173-.187 2.348-.368 3.522-.55.518-.08 1.036-.154 1.555-.232Z" clip-rule="evenodd"/>
  <path fill="#45A538" fill-rule="evenodd" d="M23.148 41.27c-.633-.545-1.29-1.066-1.897-1.639-3.269-3.083-5.66-6.712-6.837-11.087a17.936 17.936 0 0 1-.61-3.672c-.049-.87-.12-1.75-.058-2.616.164-2.303.497-4.585 1.173-6.805l.037-.051c.065.087.16.164.193.263.66 1.942 1.315 3.886 1.966 5.831 2.047 6.113 4.09 12.227 6.141 18.338.04.12.144.217.219.325l-.327 1.113Z" clip-rule="evenodd"/>
  <path fill="#46A037" fill-rule="evenodd" d="M33.014 16.055c-.519.077-1.038.15-1.556.23-1.174.182-2.348.363-3.522.55-.983.156-1.965.32-2.948.48l-.6.103-.005-.392c-.02-.322-.054-.643-.058-.965-.026-2.055-.042-4.109-.067-6.163-.016-1.286-.04-2.572-.066-3.857a96.088 96.088 0 0 0-.07-2.396c-.019-.428-.088-.855-.116-1.283-.016-.247.006-.495.01-.742.307.593.607 1.191.922 1.78.498.932 1.29 1.618 2.004 2.367 2.821 2.96 4.824 6.4 6.072 10.288Z" clip-rule="evenodd"/>
  <path fill="#409433" fill-rule="evenodd" d="M24.389 30.282c.03-.01.083-.012.088-.03.184-.63.748-.536 1.204-.615 1.287-.223 2.578-.424 3.867-.633 1.248-.202 2.495-.405 3.743-.601.148-.023.302-.004.453-.005-.233.833-.417 1.683-.712 2.493a27.81 27.81 0 0 1-1.175 2.693 18.427 18.427 0 0 1-2.382 3.661c-.72.866-1.522 1.666-2.326 2.456-.444.437-.968.793-1.456 1.185l-.126-.086-.455-.39-.471-1.032a15.526 15.526 0 0 1-.523-3.689l.009-.21.064-.91c.021-.31.05-.62.063-.932.048-1.118.09-2.236.134-3.355Z" clip-rule="evenodd"/>
  <path fill="#4FAA41" fill-rule="evenodd" d="M24.389 30.282c-.045 1.119-.087 2.237-.134 3.356-.014.31-.042.62-.063.931l-.287.109c-.637-1.876-1.275-3.732-1.899-5.593-1.03-3.078-2.05-6.161-3.08-9.24a1683.73 1683.73 0 0 0-2.512-7.45c-.04-.117-.152-.207-.231-.31l1.836-3.376c.063.11.146.212.186.33.85 2.513 1.696 5.028 2.538 7.544 1.093 3.274 2.18 6.55 3.273 9.824.043.131.115.252.184.398l.251-.292-.063 3.77Z" clip-rule="evenodd"/>
  <path fill="#4AA73C" fill-rule="evenodd" d="M16.183 12.085c.079.103.192.194.232.31.843 2.481 1.68 4.965 2.512 7.45 1.03 3.08 2.049 6.163 3.08 9.24.623 1.861 1.26 3.718 1.898 5.593l.287-.108-.064.91-.058.21c-.1.995-.184 1.994-.305 2.987-.062.498-.191.987-.29 1.48-.074-.107-.178-.205-.219-.324-2.05-6.112-4.094-12.225-6.14-18.338-.652-1.945-1.307-3.89-1.966-5.832-.034-.098-.128-.175-.194-.263l1.227-3.315Z" clip-rule="evenodd"/>
  <path fill="#57AE47" fill-rule="evenodd" d="m24.45 26.513-.25.293c-.07-.147-.141-.268-.185-.399-1.092-3.274-2.18-6.55-3.273-9.824a2087.62 2087.62 0 0 0-2.538-7.544c-.039-.118-.122-.22-.186-.33l2.271-2.987c.072.096.174.181.21.289a1061.15 1061.15 0 0 1 1.877 5.542c.58 1.726 1.151 3.455 1.738 5.18.04.115.177.197.268.294l.005.392.064 9.094Z" clip-rule="evenodd"/>
  <path fill="#60B24F" fill-rule="evenodd" d="M24.383 17.026c-.092-.097-.229-.179-.268-.294-.587-1.725-1.158-3.454-1.738-5.18-.621-1.849-1.246-3.696-1.877-5.542-.037-.108-.139-.193-.21-.288.738-.723 1.454-1.472 2.222-2.162.683-.613 1.232-1.27 1.257-2.238 0-.04.022-.08.054-.193l.195.49c-.005.248-.027.496-.011.742.028.429.097.855.116 1.284.036.798.054 1.597.07 2.395.026 1.286.05 2.571.065 3.857.026 2.054.042 4.109.068 6.163.003.323.037.644.057.966Z" clip-rule="evenodd"/>
  <path fill="#A9AA88" fill-rule="evenodd" d="M23.474 40.157c.099-.493.229-.983.29-1.48.122-.994.205-1.992.305-2.988l.025-.004.024.004a15.52 15.52 0 0 0 .523 3.69c-.066.086-.16.164-.194.262-.273.77-.53 1.544-.804 2.313-.037.105-.141.186-.215.279l-.28-.963.326-1.113Z" clip-rule="evenodd"/>
  <path fill="#B6B598" fill-rule="evenodd" d="M23.428 42.233c.074-.092.179-.174.216-.28.274-.768.531-1.542.803-2.312.035-.098.128-.175.195-.262l.47 1.032c-.093.132-.221.251-.273.398l-.901 2.647c-.037.106-.164.181-.249.271l-.26-1.494Z" clip-rule="evenodd"/>
  <path fill="#C2C1A7" fill-rule="evenodd" d="M23.69 43.727c.084-.09.21-.165.248-.27l.901-2.648c.052-.147.18-.266.273-.398l.456.389c-.22.218-.343.469-.269.786l-.138.453c-.063.078-.155.145-.186.234-.314.901-.615 1.807-.931 2.709-.04.114-.152.204-.23.304l-.125-1.56Z" clip-rule="evenodd"/>
  <path fill="#CECDB7" fill-rule="evenodd" d="M23.814 45.286c.078-.1.19-.19.23-.304.317-.901.617-1.807.932-2.709.03-.088.122-.156.185-.234l-.19 2.08c-.052.059-.126.11-.15.179-.216.605-.419 1.215-.635 1.82-.045.125-.13.235-.197.352-.06-.078-.166-.153-.17-.234-.02-.315-.006-.633-.005-.95Z" clip-rule="evenodd"/>
  <path fill="#DBDAC7" fill-rule="evenodd" d="M23.988 46.47c.067-.117.153-.228.197-.352.217-.605.42-1.215.636-1.82.024-.07.098-.12.149-.18l.004 1.366-.457 1.171-.529-.186Z" clip-rule="evenodd"/>
  <path fill="#EBE9DC" fill-rule="evenodd" d="m24.517 46.656.457-1.172.094 1.386-.55-.214Z" clip-rule="evenodd"/>
  <path fill="#CECDB7" fill-rule="evenodd" d="M25.299 41.587c-.073-.318.048-.57.269-.787l.126.087-.395.7Z" clip-rule="evenodd"/>
  <path fill="#4FAA41" fill-rule="evenodd" d="m24.119 35.69-.025-.005-.025.004.058-.21-.008.21Z" clip-rule="evenodd"/>
</svg>
