<svg xmlns="http://www.w3.org/2000/svg" width="48" height="48" fill="none" viewBox="0 0 48 48">
  <path fill="#83CD29" d="M42.29 11.375 25.752 1.773c-1.043-.594-2.401-.594-3.452 0L5.588 11.375c-1.076.62-1.838 1.783-1.838 3.028V33.58c0 1.244.782 2.408 1.858 3.031l4.415 2.508c2.11 1.04 2.857 1.04 3.817 1.04 3.125 0 4.91-1.89 4.91-5.186V16.04c0-.267-.14-.665-.402-.665H16.24c-.267 0-.865.398-.865.665v18.934c0 1.46-1.322 2.915-3.791 1.68l-4.563-2.63a.518.518 0 0 1-.271-.443V14.403c0-.181.208-.363.368-.455l16.66-9.586a.584.584 0 0 1 .539 0l16.456 9.583c.157.095.102.271.102.458V33.58c0 .183.068.361-.087.45l-16.533 9.59a.47.47 0 0 1-.473 0l-4.24-2.53c-.128-.075-.28-.102-.402-.033-1.18.669-1.397.758-2.504 1.141-.272.095-.674.26.154.724l5.55 3.282a3.49 3.49 0 0 0 3.493 0l16.456-9.593c1.076-.627 1.586-1.787 1.586-3.031V14.403c0-1.245-.51-2.406-1.586-3.028ZM29.215 30.542c-4.397 0-5.366-1.213-5.689-3.4-.037-.235-.237-.517-.477-.517H20.9c-.265 0-.48.323-.48.587 0 2.8 1.523 6.192 8.796 6.192 5.264 0 8.283-2.045 8.283-5.666 0-3.59-2.425-4.531-7.531-5.207-5.16-.682-5.685-1.027-5.685-2.236 0-.996.444-2.326 4.265-2.326 3.415 0 4.673.733 5.19 3.034a.473.473 0 0 0 .466.372h2.158c.132 0 .26-.054.352-.148a.485.485 0 0 0 .126-.368c-.334-3.963-2.967-5.81-8.292-5.81-4.737 0-7.563 2-7.563 5.354 0 3.636 2.812 4.641 7.359 5.091 5.44.533 5.862 1.328 5.862 2.398 0 1.858-1.492 2.65-4.99 2.65Z"/>
</svg>
