<svg xmlns="http://www.w3.org/2000/svg" width="48" height="48" fill="none" viewBox="0 0 48 48">
  <path fill="#61DAFB" d="M24 28.275a4.275 4.275 0 1 0 0-8.55 4.275 4.275 0 0 0 0 8.55Z"/>
  <path fill="#61DAFB" d="M40.237 16.95c-.825-.3-1.687-.6-2.587-.862.225-.9.413-1.8.563-2.663.787-4.95-.075-8.437-2.476-9.787-.712-.413-1.5-.6-2.4-.6-2.625 0-5.962 1.95-9.337 5.212-3.375-3.262-6.712-5.212-9.338-5.212-.9 0-1.687.187-2.4.6C9.862 5.025 9 8.513 9.787 13.425c.15.863.338 1.763.563 2.663-.9.262-1.763.525-2.588.862C3.075 18.75.525 21.225.525 24c0 2.775 2.587 5.25 7.237 7.05.825.3 1.688.6 2.588.863-.225.9-.413 1.8-.563 2.662-.787 4.95.075 8.438 2.475 9.788.713.412 1.5.6 2.4.6 2.663 0 6-1.95 9.338-5.213 3.375 3.263 6.712 5.213 9.337 5.213.9 0 1.688-.188 2.4-.6 2.4-1.388 3.263-4.875 2.475-9.788a37.617 37.617 0 0 0-.562-2.662c.9-.263 1.763-.525 2.587-.863 4.688-1.8 7.238-4.275 7.238-7.05 0-2.775-2.55-5.25-7.238-7.05Zm-5.55-11.437c1.538.9 2.063 3.675 1.425 7.612-.112.788-.3 1.613-.525 2.475-1.95-.45-4.012-.75-6.187-.937a54.106 54.106 0 0 0-3.9-4.875c2.775-2.738 5.587-4.613 7.875-4.613.487 0 .938.113 1.313.338Zm-4.2 22.237c-.674 1.2-1.462 2.4-2.287 3.6a51.77 51.77 0 0 1-4.2.15c-1.462 0-2.85-.037-4.2-.15-.825-1.2-1.575-2.4-2.25-3.6A60.417 60.417 0 0 1 15.562 24a60.417 60.417 0 0 1 1.988-3.75c.675-1.2 1.462-2.4 2.287-3.6a51.77 51.77 0 0 1 4.2-.15c1.463 0 2.85.038 4.2.15.826 1.2 1.576 2.4 2.25 3.6A60.417 60.417 0 0 1 32.476 24c-.638 1.238-1.275 2.475-1.988 3.75Zm3.113-1.237a44.24 44.24 0 0 1 1.425 3.862c-1.275.3-2.625.525-4.05.713.45-.713.938-1.463 1.35-2.25.45-.788.862-1.575 1.275-2.325ZM24 36.675a42.162 42.162 0 0 1-2.587-3.112c.862.037 1.724.075 2.587.075.863 0 1.725-.038 2.587-.075A42.162 42.162 0 0 1 24 36.675Zm-6.975-5.625c-1.425-.187-2.775-.412-4.05-.712.412-1.238.863-2.55 1.425-3.863.412.75.825 1.538 1.275 2.288.45.825.9 1.537 1.35 2.287ZM14.4 21.488a44.24 44.24 0 0 1-1.425-3.863c1.275-.3 2.625-.525 4.05-.712-.45.712-.938 1.462-1.35 2.25-.45.787-.863 1.575-1.275 2.325ZM24 11.325c.9.975 1.762 2.025 2.587 3.113A59.595 59.595 0 0 0 24 14.363c-.863 0-1.725.037-2.587.075A42.162 42.162 0 0 1 24 11.325Zm8.325 7.875-1.35-2.25c1.425.188 2.775.413 4.05.713-.413 1.237-.862 2.55-1.425 3.862-.413-.787-.825-1.575-1.275-2.325Zm-20.438-6.075c-.637-3.937-.112-6.712 1.425-7.612a2.537 2.537 0 0 1 1.313-.338c2.25 0 5.063 1.838 7.875 4.613-1.313 1.425-2.625 3.075-3.9 4.875a50.984 50.984 0 0 0-6.188.937c-.225-.862-.375-1.687-.525-2.475ZM2.625 24c0-1.762 2.137-3.637 5.887-5.025.75-.3 1.575-.562 2.4-.787a54.7 54.7 0 0 0 2.25 5.85c-.9 1.987-1.687 3.937-2.25 5.812-5.175-1.5-8.287-3.75-8.287-5.85Zm10.688 18.488c-1.538-.9-2.063-3.675-1.426-7.613.113-.787.3-1.612.525-2.475 1.95.45 4.013.75 6.188.938a54.106 54.106 0 0 0 3.9 4.875c-2.775 2.737-5.587 4.612-7.875 4.612-.488 0-.938-.112-1.313-.337Zm22.8-7.613c.637 3.938.112 6.713-1.425 7.613-.376.225-.826.337-1.313.337-2.25 0-5.063-1.837-7.875-4.612 1.313-1.425 2.625-3.075 3.9-4.875a50.984 50.984 0 0 0 6.188-.938c.224.863.374 1.688.524 2.475Zm3.374-5.85c-.75.3-1.575.563-2.4.788a54.659 54.659 0 0 0-2.25-5.85c.9-1.988 1.688-3.938 2.25-5.813 5.175 1.5 8.288 3.75 8.288 5.85 0 1.763-2.175 3.638-5.888 5.025Z"/>
</svg>
