<svg xmlns="http://www.w3.org/2000/svg" width="48" height="48" fill="none" viewBox="0 0 48 48">
  <path fill="#A41E11" d="M45.675 34.913c-2.512 1.312-15.525 6.637-18.3 8.1-2.775 1.462-4.313 1.425-6.488.375-2.175-1.05-16.012-6.6-18.525-7.8-1.237-.6-1.875-1.088-1.875-1.575V29.25s18-3.937 20.926-4.95c2.924-1.05 3.9-1.087 6.375-.187 2.474.9 17.287 3.562 19.725 4.462v4.688c0 .487-.563 1.012-1.838 1.65Z"/>
  <path fill="#D82C20" d="M45.675 30.187c-2.512 1.313-15.525 6.638-18.3 8.1-2.775 1.463-4.313 1.425-6.488.375-2.175-1.05-16.012-6.637-18.525-7.837-2.475-1.2-2.55-2.025-.112-2.963 2.437-.975 16.2-6.375 19.125-7.387 2.925-1.05 3.9-1.088 6.375-.188 2.475.9 15.413 6.038 17.85 6.938 2.512.9 2.587 1.65.075 2.962Z"/>
  <path fill="#A41E11" d="M45.675 27.187c-2.512 1.313-15.525 6.638-18.3 8.1-2.775 1.425-4.313 1.425-6.488.375-2.175-1.05-16.012-6.637-18.525-7.837-1.237-.6-1.875-1.088-1.875-1.575v-4.763s18-3.937 20.926-4.95c2.924-1.05 3.9-1.087 6.375-.187 2.474.9 17.287 3.562 19.725 4.462V25.5c0 .487-.563 1.012-1.838 1.687Z"/>
  <path fill="#D82C20" d="M45.675 22.425c-2.512 1.312-15.525 6.637-18.3 8.1-2.775 1.425-4.313 1.425-6.488.375-2.175-1.05-16.012-6.638-18.524-7.838-2.513-1.2-2.55-2.025-.113-2.962 2.438-.975 16.2-6.375 19.125-7.388 2.925-1.05 3.9-1.087 6.375-.187 2.475.9 15.413 6.037 17.85 6.937 2.512.9 2.587 1.65.075 2.963Z"/>
  <path fill="#A41E11" d="M45.675 19.125c-2.512 1.313-15.525 6.637-18.3 8.1-2.775 1.425-4.313 1.425-6.488.375-2.175-1.013-16.012-6.6-18.524-7.8C1.125 19.2.45 18.712.45 18.225v-4.763s18-3.937 20.925-4.95c2.925-1.05 3.9-1.087 6.375-.187 2.475.9 17.288 3.563 19.725 4.463v4.687c.038.487-.525.975-1.8 1.65Z"/>
  <path fill="#D82C20" d="M45.675 14.363c-2.512 1.312-15.525 6.637-18.3 8.1-2.775 1.424-4.313 1.424-6.488.374-2.175-1.05-16.012-6.6-18.524-7.8-2.513-1.2-2.55-2.025-.113-2.962C4.688 11.1 18.45 5.7 21.375 4.688c2.925-1.05 3.9-1.088 6.375-.188 2.475.9 15.413 6.037 17.85 6.938 2.512.9 2.587 1.65.075 2.925Z"/>
  <path fill="#fff" d="m30.15 9.787-4.05.45-.938 2.175L23.7 9.975l-4.688-.413L22.5 8.287l-1.05-1.95 3.3 1.275L27.825 6.6 27 8.625l3.15 1.162Zm-5.212 10.65-7.613-3.15 10.913-1.65-3.3 4.8ZM14.4 15.525c3.21 0 5.812-1.008 5.812-2.25 0-1.243-2.602-2.25-5.812-2.25-3.21 0-5.813 1.007-5.813 2.25 0 1.242 2.603 2.25 5.813 2.25Z"/>
  <path fill="#7A0C00" d="m34.987 10.387 6.45 2.55-6.45 2.55v-5.1Z"/>
  <path fill="#AD2115" d="m27.863 13.238 7.124-2.85v5.1l-.712.3-6.412-2.55Z"/>
</svg>
